# xmcd
#
# Track frame offsets:
#	150
#	11593
#	24582
#	37565
#	49533
#	61970
#	73392
#	84456
#	95266
#	108047
#	118073
#	128284
#	136908
#	148427
#	160625
#	173863
#	185829
#	197244
#	210227
#	220766
#	233772
#	245365
#	255600
#	267545
#	276941
#	289568
#	301986
#	314197
#
# Disc length: 4346 seconds
#
# Revision: 2
# Processed by: cddbd v1.5.2PL0 Copyright (c) Steve Scherf et al.
# Submitted via: audiograbber 1.83.01
#
DISCID=9210f81c
DTITLE=Various Artist - Absolutely Bluegrass - CD3
DYEAR=2011
DGENRE=Bluegrass
TTITLE0=Bill Monroe And His Bluegrass Boys - Shine Hallelujah Shine
TTITLE1=The Lone Star Cowboys - Just Because
TTITLE2=Flatt And Scruggs - Dim Lights Thick Smoke
TTITLE3=The Stanley Brothers - Poison Lies
TTITLE4=Wade Mainer - The Girl I Left In Sunny Tennessee
TTITLE5=Tommy Magness - Little Country Preacher
TTITLE6=Reno And Smiley - There's Another Baby Waiting For Me Down The Line
TTITLE7=Jimmie Skinner - Ready To Go Home
TTITLE8=Bill Monroe And His Bluegrass Boys - It's Mighty Dark To Travel
TTITLE9=The Stanley Brothers - Dickson County Breakdown
TTITLE10=Flatt And Scruggs - Get In Line Brothers
TTITLE11=Jimmy Martin And The Sunny Mountain Boys - She's Just A Cute Thing
TTITLE12=Dixon Brothers - The Intoxicated Rat
TTITLE13=Blue Sky Boys - Sold Down The River
TTITLE14=Shelton Brothers - Hang Out The Front Door Key
TTITLE15=Flatt And Scruggs - Be Ready For Tomorrow May Never Come
TTITLE16=The Stanley Brothers - The Wandering Boy
TTITLE17=Bill Monroe And His Bluegrass Boys - Summertime Is Past And Gone
TTITLE18=Delmore Brothers - The Nashville Blues
TTITLE19=Bailey Brothers - Alabama
TTITLE20=Flatt And Scruggs - If I Should Wander Back To You
TTITLE21=The Stanley Brothers - Are You Waiting Just For Me?
TTITLE22=Maddox Brothers And Rose - The Meanest Man In Town
TTITLE23=Farr Brothers - Alabamy Stomp
TTITLE24=The Louvin' Brothers - Seven Year Blues
TTITLE25=Bill Monroe And His Bluegrass Boys - Were You There
TTITLE26=Flatt And Scruggs - Someone Took My Place With You
TTITLE27=Morris Brothers - Salty Dog Blues
EXTD=
EXTT0=
EXTT1=
EXTT2=
EXTT3=
EXTT4=
EXTT5=
EXTT6=
EXTT7=
EXTT8=
EXTT9=
EXTT10=
EXTT11=
EXTT12=
EXTT13=
EXTT14=
EXTT15=
EXTT16=
EXTT17=
EXTT18=
EXTT19=
EXTT20=
EXTT21=
EXTT22=
EXTT23=
EXTT24=
EXTT25=
EXTT26=
EXTT27=
PLAYORDER=
